<?xml version="1.0" encoding="iso-8859-1"?>
<!-- Generator: Adobe Illustrator 16.0.0, SVG Export Plug-In . SVG Version: 6.00 Build 0)  -->
<!DOCTYPE svg PUBLIC "-//W3C//DTD SVG 1.1//EN" "http://www.w3.org/Graphics/SVG/1.1/DTD/svg11.dtd">
<svg version="1.1" id="Capa_1" xmlns="http://www.w3.org/2000/svg" xmlns:xlink="http://www.w3.org/1999/xlink" x="0px" y="0px"
	 width="485.755px" height="485.755px" viewBox="0 0 485.755 485.755" style="enable-background:new 0 0 485.755 485.755;"
	 xml:space="preserve">
<g>
	<g>
		<g>
			<path d="M203.078,292.864c-11.691,0-18.492,11.117-18.492,25.975c0,14.979,7.023,25.53,18.602,25.53
				c11.691,0,18.383-11.121,18.383-25.974C221.57,304.666,214.988,292.864,203.078,292.864z"/>
			<path d="M398.09,293.084c-3.844,0-6.344,0.349-7.814,0.699V343.8c1.473,0.348,3.844,0.348,6.012,0.348
				c15.646,0.113,25.863-8.508,25.863-26.781C422.258,301.485,412.957,293.084,398.09,293.084z"/>
			<path d="M428.395,173.639L300.711,46.126c-15.457-15.473-36.004-23.98-57.867-23.98c-21.844,0.016-42.391,8.539-57.832,23.98
				L57.168,173.653C25.563,173.845,0,199.501,0,231.138v174.953c0,31.768,25.75,57.518,57.516,57.518h370.723
				c31.762,0,57.516-25.75,57.516-57.518V231.139C485.754,199.439,460.082,173.716,428.395,173.639z M219.371,80.481
				c12.465-12.43,34.516-12.465,46.979,0l93.142,93.141H126.23L219.371,80.481z M104.226,288.689l-0.523,2.023
				c-0.727,2.848-3.637,4.586-6.5,3.857c-2.703-0.663-5.852-1.141-9.441-1.141c-13.715,0-24.379,8.288-24.379,25.297
				c0,15.328,9.066,24.961,24.504,24.961c2.563,0,5.234-0.271,7.719-0.711c3.766-0.664,7.371,1.814,8.098,5.599
				c0.73,3.767-1.707,7.418-5.473,8.194c-3.496,0.711-7.906,1.203-12.953,1.203c-26.434,0-40.055-16.438-40.055-38.22
				c0-26.103,18.605-40.621,41.746-40.621c4.699,0,8.797,0.505,12.086,1.198c1.805,0.384,3.387,1.505,4.367,3.07
				C104.402,284.985,104.687,286.899,104.226,288.689z M156.715,356.85h-33.504c-3.879,0-7.008-3.148-7.008-7.008v-60.773
				c0-4.793,3.891-8.684,8.684-8.684s8.684,3.891,8.684,8.684v53.262h23.145c4,0,7.258,3.242,7.258,7.259
				C163.972,353.606,160.715,356.85,156.715,356.85z M202.285,358.1c-22.699,0-35.969-17.133-35.969-38.914
				c0-22.922,14.629-40.051,37.203-40.051c23.492,0,36.305,17.59,36.305,38.69C239.824,342.896,224.621,358.1,202.285,358.1z
				 M269.863,357.975c-5.457,0-10.867-0.871-15.203-2.121c-3.699-1.043-5.898-4.84-4.98-8.574l0.109-0.473
				c0.457-1.867,1.66-3.449,3.34-4.398c1.66-0.934,3.637-1.155,5.473-0.586c3.699,1.156,7.957,1.978,12.273,1.978
				c7.941,0,12.148-3.289,12.148-8.289c0-4.745-3.638-7.465-12.828-10.754c-12.703-4.431-20.992-11.47-20.992-22.591
				c0-13.034,10.897-23.03,28.934-23.03c5.125,0,9.457,0.647,13.082,1.599c1.738,0.457,3.212,1.599,4.113,3.147
				c0.902,1.547,1.137,3.414,0.664,5.155l-0.129,0.441c-1.043,3.766-4.935,6.012-8.715,5.031c-2.625-0.695-5.742-1.188-9.349-1.188
				c-7.5,0-11.121,3.402-11.121,7.371c0,4.893,4.302,7.039,14.173,10.772c13.512,5,19.854,12.022,19.854,22.81
				C300.711,347.092,290.84,357.975,269.863,357.975z M354.051,356.85h-34.297c-4.098,0-7.401-3.305-7.401-7.387v-61.691
				c0-4.082,3.306-7.387,7.401-7.387h32.715c3.906,0,7.087,3.18,7.087,7.086c0,3.922-3.181,7.102-7.087,7.102h-22.75v15.883h21.087
				c3.896,0,7.043,3.134,7.043,7.023s-3.147,7.039-7.043,7.039h-21.087v18.145h24.332c3.906,0,7.086,3.181,7.086,7.104
				C361.137,353.67,357.957,356.85,354.051,356.85z M427.828,347.771c-8.07,6.691-20.313,9.871-35.293,9.871
				c-5.234,0-9.57-0.191-13.146-0.461c-3.673-0.285-6.483-3.336-6.483-7.023v-62.562c0-3.621,2.733-6.646,6.344-7.008
				c5.125-0.504,10.978-0.759,17.035-0.759c14.521,0,23.934,2.595,31.305,8.159c7.941,5.889,12.938,15.313,12.938,28.824
				C440.527,331.428,435.199,341.537,427.828,347.771z"/>
		</g>
	</g>
</g>
<g>
</g>
<g>
</g>
<g>
</g>
<g>
</g>
<g>
</g>
<g>
</g>
<g>
</g>
<g>
</g>
<g>
</g>
<g>
</g>
<g>
</g>
<g>
</g>
<g>
</g>
<g>
</g>
<g>
</g>
</svg>
